<?xml version="1.0" encoding="iso-8859-1"?>
<!-- Generator: Adobe Illustrator 18.0.0, SVG Export Plug-In . SVG Version: 6.00 Build 0)  -->
<!DOCTYPE svg PUBLIC "-//W3C//DTD SVG 1.1//EN" "http://www.w3.org/Graphics/SVG/1.1/DTD/svg11.dtd">
<svg xmlns="http://www.w3.org/2000/svg" xmlns:xlink="http://www.w3.org/1999/xlink" version="1.1" id="Capa_1" x="0px" y="0px" viewBox="0 0 425.929 425.929" style="enable-background:new 0 0 425.929 425.929;" xml:space="preserve" width="512px" height="512px">
<g>
	<path d="M352.929,202.964h-51c-5.523,0-10,4.478-10,10s4.477,10,10,10h51c5.523,0,10-4.478,10-10   S358.452,202.964,352.929,202.964z" fill="#FFFFFF"/>
	<path d="M415.929,202.964h-9.848c-5.813-6.451-12.056-12.413-18.656-17.878   c0.323-0.983,0.504-2.031,0.504-3.122v-59c0-5.522-4.477-10-10-10h-23.876c-11.098,0-21.811,4.648-29.392,12.752l-19.953,21.33   c-9.866-1.698-19.931-2.582-30.107-2.582H130.419c-24.56,0-49.218,5.673-71.308,16.404C37.02,171.6,17.32,187.477,2.139,206.784   c-2.852,3.627-2.852,8.734,0,12.361c15.181,19.307,34.881,35.184,56.972,45.915c12.025,5.842,24.814,10.171,37.931,12.916   l10.875,28.548c1.477,3.878,5.195,6.44,9.345,6.44h44.667c3.817,0,7.302-2.173,8.98-5.602l12-24.5   c0.224-0.458,0.398-0.927,0.547-1.398H274.6c10.176,0,20.242-0.884,30.107-2.582l19.953,21.329   c7.582,8.104,18.294,12.753,29.392,12.753h23.876c5.523,0,10-4.478,10-10v-59c0-1.091-0.181-2.139-0.504-3.122   c6.6-5.465,12.843-11.427,18.656-17.878h9.848c5.523,0,10-4.478,10-10S421.452,202.964,415.929,202.964z M339.266,139.379   c3.814-4.077,9.204-6.415,14.787-6.415h13.876v38.097c-12.769-7.928-26.492-14.201-40.851-18.653L339.266,139.379z    M155.691,292.964h-31.538l-4.525-11.878c3.594,0.241,7.193,0.378,10.791,0.378h30.905L155.691,292.964z M367.929,292.964h-13.876   c-5.583,0-10.973-2.338-14.787-6.416l-12.188-13.028c14.359-4.453,28.082-10.726,40.851-18.653V292.964z M274.6,261.464H130.419   c-41.517,0-80.226-17.576-107.417-48.5c27.191-30.924,65.9-48.5,107.417-48.5H274.6c43.048,0,83.928,17.574,113.482,48.5   C358.528,243.89,317.648,261.464,274.6,261.464z" fill="#FFFFFF"/>
</g>
<g>
</g>
<g>
</g>
<g>
</g>
<g>
</g>
<g>
</g>
<g>
</g>
<g>
</g>
<g>
</g>
<g>
</g>
<g>
</g>
<g>
</g>
<g>
</g>
<g>
</g>
<g>
</g>
<g>
</g>
</svg>
